<svg xmlns="http://www.w3.org/2000/svg" width="1200" height="675" viewBox="0 0 1200 675" role="img" aria-labelledby="title desc">
  <title id="title">比較表のテンプレート</title>
  <desc id="desc">3つの方式を4つの観点で比較し、推奨案を強調する。</desc>
  <rect width="1200" height="675" fill="#FAF8F3"/>
  <rect x="64" y="54" width="162" height="36" rx="4" fill="#123858"/>
  <text data-slot="eyebrow" x="145" y="79" text-anchor="middle" fill="#FFFFFF" font-family="'Zen Maru Gothic', 'Noto Sans JP', 'Yu Gothic', sans-serif" font-size="16px" font-weight="700">COMPARISON</text>
  <text data-slot="title" x="64" y="144" fill="#17202A" font-family="'Zen Maru Gothic', 'Noto Sans JP', 'Yu Gothic', sans-serif" font-size="36px" font-weight="700">違いを並べ、判断の基準をそろえる</text>

  <g transform="translate(64 202)">

    <rect width="1072" height="360" rx="4" fill="#FFFFFF" stroke="#D5DDE6" stroke-width="1px"/>
    <path d="M250 0V360M524 0V360M798 0V360M0 72H1072M0 144H1072M0 216H1072M0 288H1072" stroke="#17202A" stroke-width="1px"/>
    <rect x="524" width="274" height="360" fill="#DCE8F6"/>
    <path d="M524 0V360M798 0V360" stroke="#17202A" stroke-width="1px"/>

    <text x="32" y="46" fill="#65717E" font-family="'Zen Maru Gothic', 'Noto Sans JP', 'Yu Gothic', sans-serif" font-size="16px" font-weight="700">比較軸</text>
    <text data-slot="label-column-1" x="387" y="46" text-anchor="middle" fill="#17202A" font-family="'Zen Maru Gothic', 'Noto Sans JP', 'Yu Gothic', sans-serif" font-size="20px" font-weight="700">方式 A</text>
    <text data-slot="label-column-2" x="661" y="46" text-anchor="middle" fill="#123858" font-family="'Zen Maru Gothic', 'Noto Sans JP', 'Yu Gothic', sans-serif" font-size="20px" font-weight="700">方式 B</text>
    <rect x="706" y="18" width="70" height="28" rx="14" fill="#2C63B4"/>
    <text x="741" y="38" text-anchor="middle" fill="#FFFFFF" font-family="'Noto Sans JP', 'Yu Gothic', sans-serif" font-size="14px" font-weight="700">推奨</text>
    <text data-slot="label-column-3" x="935" y="46" text-anchor="middle" fill="#17202A" font-family="'Zen Maru Gothic', 'Noto Sans JP', 'Yu Gothic', sans-serif" font-size="20px" font-weight="700">方式 C</text>

    <text data-slot="label-row-1" x="32" y="118" fill="#17202A" font-family="'Noto Sans JP', 'Yu Gothic', sans-serif" font-size="20px" font-weight="700">導入コスト</text>
    <text data-slot="label-row-2" x="32" y="190" fill="#17202A" font-family="'Noto Sans JP', 'Yu Gothic', sans-serif" font-size="20px" font-weight="700">変更しやすさ</text>
    <text data-slot="label-row-3" x="32" y="262" fill="#17202A" font-family="'Noto Sans JP', 'Yu Gothic', sans-serif" font-size="20px" font-weight="700">再利用性</text>
    <text data-slot="label-row-4" x="32" y="334" fill="#17202A" font-family="'Noto Sans JP', 'Yu Gothic', sans-serif" font-size="20px" font-weight="700">向いている場面</text>

    <g font-family="'Noto Sans JP', 'Yu Gothic', sans-serif" font-size="20px" text-anchor="middle">
      <text data-slot="cell-1-1" x="387" y="118" fill="#65717E">低い</text><text data-slot="cell-1-2" x="661" y="118" fill="#17202A" font-weight="700">中</text><text data-slot="cell-1-3" x="935" y="118" fill="#65717E">高い</text>
      <text data-slot="cell-2-1" x="387" y="190" fill="#65717E">△</text><text data-slot="cell-2-2" x="661" y="190" fill="#123858" font-family="'Zen Maru Gothic', 'Noto Sans JP', 'Yu Gothic', sans-serif" font-weight="700">◎</text><text data-slot="cell-2-3" x="935" y="190" fill="#65717E">○</text>
      <text data-slot="cell-3-1" x="387" y="262" fill="#65717E">△</text><text data-slot="cell-3-2" x="661" y="262" fill="#123858" font-family="'Zen Maru Gothic', 'Noto Sans JP', 'Yu Gothic', sans-serif" font-weight="700">◎</text><text data-slot="cell-3-3" x="935" y="262" fill="#65717E">○</text>
      <text data-slot="cell-4-1" x="387" y="334" fill="#65717E">単発</text><text data-slot="cell-4-2" x="661" y="334" fill="#17202A" font-weight="700">継続運用</text><text data-slot="cell-4-3" x="935" y="334" fill="#65717E">大規模</text>
    </g>
  </g>

  <text data-slot="source" x="64" y="620" fill="#65717E" font-family="'Noto Sans JP', 'Yu Gothic', sans-serif" font-size="14px">筆者作成</text>
  <g transform="translate(892 586)"><g data-slot="brand" aria-label="otake-shol visual note">
  <rect width="36" height="36" rx="9" fill="#17202A"/>
  <circle cx="16" cy="16" r="11" fill="none" stroke="#2C63B4" stroke-width="2"/>
  <g fill="#FFFFFF" aria-hidden="true">
    <rect x="8" y="12" width="4" height="12" rx="1"/>
    <rect x="13" y="12" width="4" height="12" rx="1"/>
    <rect x="18" y="12" width="4" height="12" rx="1"/>
    <rect x="23" y="12" width="4" height="12" rx="1"/>
  </g>
  <text x="48" y="16" fill="#17202A" font-family="'Noto Sans JP', 'Yu Gothic', sans-serif" font-size="16px" font-weight="700">otake-shol</text>
  <text x="48" y="34" fill="#65717E" font-family="'Noto Sans JP', 'Yu Gothic', sans-serif" font-size="14px">visual note</text>
</g></g>
</svg>
