<svg xmlns="http://www.w3.org/2000/svg" width="1200" height="675" viewBox="0 0 1200 675" role="img" aria-labelledby="title desc">
  <title id="title">シーケンス図のテンプレート</title>
  <desc id="desc">3つの主体間で起きる4つのやり取りを上から下へ示す。</desc>
  <defs><marker id="arrow" markerWidth="11" markerHeight="11" refX="9" refY="5.5" orient="auto"><path d="M1 1L10 5.5L1 10Z" fill="#17202A"/></marker></defs>
  <rect width="1200" height="675" fill="#FAF8F3"/>
  <rect x="64" y="54" width="150" height="36" rx="4" fill="#123858"/>
  <text data-slot="eyebrow" x="139" y="79" text-anchor="middle" fill="#FFFFFF" font-family="'Zen Maru Gothic', 'Noto Sans JP', 'Yu Gothic', sans-serif" font-size="16px" font-weight="700">SEQUENCE</text>
  <text data-slot="title" x="64" y="144" fill="#17202A" font-family="'Zen Maru Gothic', 'Noto Sans JP', 'Yu Gothic', sans-serif" font-size="36px" font-weight="700">主体間のやり取りを、順番で追う</text>
  <text data-slot="subtitle" x="66" y="183" fill="#65717E" font-family="'Noto Sans JP', 'Yu Gothic', sans-serif" font-size="20px">時間は上から下。矢印には動詞を書く。</text>

  <g font-family="'Noto Sans JP', 'Yu Gothic', sans-serif">
    <g>
      <rect x="120" y="220" width="220" height="58" rx="4" fill="#DCE8F6" stroke="#D5DDE6" stroke-width="1px"/>
      <text data-slot="actor-1" x="230" y="257" text-anchor="middle" fill="#17202A" font-size="20px" font-weight="700">Author</text>
      <line x1="230" y1="278" x2="230" y2="548" stroke="#65717E" stroke-width="1px" stroke-dasharray="6 8"/>
    </g>
    <g>
      <rect x="490" y="220" width="220" height="58" rx="4" fill="#ECF2F9" stroke="#D5DDE6" stroke-width="1px"/>
      <text data-slot="actor-2" x="600" y="257" text-anchor="middle" fill="#17202A" font-size="20px" font-weight="700">OVS CLI</text>
      <line x1="600" y1="278" x2="600" y2="548" stroke="#65717E" stroke-width="1px" stroke-dasharray="6 8"/>
    </g>
    <g>
      <rect x="860" y="220" width="220" height="58" rx="4" fill="#ECF2F9" stroke="#D5DDE6" stroke-width="1px"/>
      <text data-slot="actor-3" x="970" y="257" text-anchor="middle" fill="#17202A" font-size="20px" font-weight="700">Media</text>
      <line x1="970" y1="278" x2="970" y2="548" stroke="#65717E" stroke-width="1px" stroke-dasharray="6 8"/>
    </g>

    <line x1="230" y1="326" x2="586" y2="326" stroke="#17202A" stroke-width="1px" marker-end="url(#arrow)"/>
    <text data-slot="message-1" x="408" y="314" text-anchor="middle" fill="#17202A" font-size="16px" font-weight="700">briefを渡す</text>
    <line x1="600" y1="390" x2="956" y2="390" stroke="#17202A" stroke-width="1px" marker-end="url(#arrow)"/>
    <text data-slot="message-2" x="778" y="378" text-anchor="middle" fill="#17202A" font-size="16px" font-weight="700">媒体別画像を生成</text>
    <line x1="970" y1="454" x2="614" y2="454" stroke="#2C63B4" stroke-width="1px" stroke-dasharray="7 7" marker-end="url(#arrow)"/>
    <text data-slot="message-3" x="792" y="442" text-anchor="middle" fill="#123858" font-size="16px" font-weight="700">表示結果を返す</text>
    <line x1="600" y1="518" x2="244" y2="518" stroke="#2C63B4" stroke-width="1px" stroke-dasharray="7 7" marker-end="url(#arrow)"/>
    <text data-slot="message-4" x="422" y="506" text-anchor="middle" fill="#123858" font-size="16px" font-weight="700">検証結果を返す</text>
  </g>

  <text data-slot="source" x="64" y="620" fill="#65717E" font-family="'Noto Sans JP', 'Yu Gothic', sans-serif" font-size="14px">筆者作成</text>
  <g transform="translate(892 586)"><g data-slot="brand" aria-label="otake-shol visual note">
  <rect width="36" height="36" rx="9" fill="#17202A"/>
  <circle cx="16" cy="16" r="11" fill="none" stroke="#2C63B4" stroke-width="2"/>
  <g fill="#FFFFFF" aria-hidden="true">
    <rect x="8" y="12" width="4" height="12" rx="1"/>
    <rect x="13" y="12" width="4" height="12" rx="1"/>
    <rect x="18" y="12" width="4" height="12" rx="1"/>
    <rect x="23" y="12" width="4" height="12" rx="1"/>
  </g>
  <text x="48" y="16" fill="#17202A" font-family="'Noto Sans JP', 'Yu Gothic', sans-serif" font-size="16px" font-weight="700">otake-shol</text>
  <text x="48" y="34" fill="#65717E" font-family="'Noto Sans JP', 'Yu Gothic', sans-serif" font-size="14px">visual note</text>
</g></g>
</svg>
